<svg xmlns="http://www.w3.org/2000/svg" width="23.467" height="18.249" viewBox="0 0 23.467 18.249">
  <path id="Icon_awesome-home" data-name="Icon awesome-home" d="M11.422,6.237,3.911,12.423V19.1a.652.652,0,0,0,.652.652l4.565-.012a.652.652,0,0,0,.649-.652v-3.9a.652.652,0,0,1,.652-.652h2.607a.652.652,0,0,1,.652.652v3.9a.652.652,0,0,0,.652.654l4.564.013a.652.652,0,0,0,.652-.652V12.418L12.045,6.237A.5.5,0,0,0,11.422,6.237Zm11.864,4.2L19.88,7.634V1.991a.489.489,0,0,0-.489-.489H17.11a.489.489,0,0,0-.489.489V4.949l-3.647-3a1.955,1.955,0,0,0-2.485,0L.177,10.441a.489.489,0,0,0-.065.688L1.15,12.393a.489.489,0,0,0,.689.066l9.583-7.893a.5.5,0,0,1,.623,0l9.583,7.893a.489.489,0,0,0,.688-.065l1.039-1.263a.489.489,0,0,0-.069-.69Z" transform="translate(0.001 -1.502)" fill="#a1a7c4"/>
</svg>
